HIERARCHY
ROOT Hips
{
	OFFSET 0.00000 0.00000 0.00000
	CHANNELS 6 Xposition Yposition Zposition Zrotation Yrotation Xrotation 
	JOINT LHipJoint
	{
		OFFSET 0 0 0
		CHANNELS 3 Zrotation Yrotation Xrotation
		JOINT LeftUpLeg
		{
			OFFSET 1.57338 -1.94743 0.52196
			CHANNELS 3 Zrotation Yrotation Xrotation
			JOINT LeftLeg
			{
				OFFSET 2.60333 -7.15259 0.00000
				CHANNELS 3 Zrotation Yrotation Xrotation
				JOINT LeftFoot
				{
					OFFSET 2.77855 -7.63400 0.00000
					CHANNELS 3 Zrotation Yrotation Xrotation
					JOINT LeftToeBase
					{
						OFFSET 0.19847 -0.54529 2.28466
						CHANNELS 3 Zrotation Yrotation Xrotation
						End Site
						{
							OFFSET 0.00000 -0.00000 1.17993
						}
					}
				}
			}
		}
	}
	JOINT RHipJoint
	{
		OFFSET 0 0 0
		CHANNELS 3 Zrotation Yrotation Xrotation
		JOINT RightUpLeg
		{
			OFFSET -1.61527 -1.94743 0.52196
			CHANNELS 3 Zrotation Yrotation Xrotation
			JOINT RightLeg
			{
				OFFSET -2.53829 -6.97390 0.00000
				CHANNELS 3 Zrotation Yrotation Xrotation
				JOINT RightFoot
				{
					OFFSET -2.80762 -7.71387 0.00000
					CHANNELS 3 Zrotation Yrotation Xrotation
					JOINT RightToeBase
					{
						OFFSET -0.30536 -0.83898 2.28801
						CHANNELS 3 Zrotation Yrotation Xrotation
						End Site
						{
							OFFSET -0.00000 -0.00000 1.21323
						}
					}
				}
			}
		}
	}
	JOINT LowerBack
	{
		OFFSET 0 0 0
		CHANNELS 3 Zrotation Yrotation Xrotation
		JOINT Spine
		{
			OFFSET -0.04381 1.99497 -0.19778
			CHANNELS 3 Zrotation Yrotation Xrotation
			JOINT Spine1
			{
				OFFSET -0.01959 2.01295 -0.04372
				CHANNELS 3 Zrotation Yrotation Xrotation
				JOINT Neck
				{
					OFFSET 0 0 0
					CHANNELS 3 Zrotation Yrotation Xrotation
					JOINT Neck1
					{
						OFFSET -0.05459 1.76913 0.09708
						CHANNELS 3 Zrotation Yrotation Xrotation
						JOINT Head
						{
							OFFSET 0.09461 1.77368 -0.11172
							CHANNELS 3 Zrotation Yrotation Xrotation
							End Site
							{
								OFFSET 0.03812 1.78157 -0.04834
							}
						}
					}
				}
				JOINT LeftShoulder
				{
					OFFSET 0 0 0
					CHANNELS 3 Zrotation Yrotation Xrotation
					JOINT LeftArm
					{
						OFFSET 3.50922 1.24034 -0.28866
						CHANNELS 3 Zrotation Yrotation Xrotation
						JOINT LeftForeArm
						{
							OFFSET 5.40188 -0.00000 0.00000
							CHANNELS 3 Zrotation Yrotation Xrotation
							JOINT LeftHand
							{
								OFFSET 3.68559 -0.00000 0.00000
								CHANNELS 3 Zrotation Yrotation Xrotation
								JOINT LeftFingerBase
								{
									OFFSET 0 0 0
									CHANNELS 3 Zrotation Yrotation Xrotation
									JOINT LeftHandIndex1
									{
										OFFSET 0.61753 -0.00000 0.00000
										CHANNELS 3 Zrotation Yrotation Xrotation
										End Site
										{
											OFFSET 0.49787 -0.00000 0.00000
										}
									}
								}
								JOINT LThumb
								{
									OFFSET 0 0 0
									CHANNELS 3 Zrotation Yrotation Xrotation
									End Site
									{
										OFFSET 0.50547 -0.00000 0.50547
									}
								}
							}
						}
					}
				}
				JOINT RightShoulder
				{
					OFFSET 0 0 0
					CHANNELS 3 Zrotation Yrotation Xrotation
					JOINT RightArm
					{
						OFFSET -2.95373 1.39649 -0.27346
						CHANNELS 3 Zrotation Yrotation Xrotation
						JOINT RightForeArm
						{
							OFFSET -6.10670 -0.00000 -0.00000
							CHANNELS 3 Zrotation Yrotation Xrotation
							JOINT RightHand
							{
								OFFSET -3.63052 -0.00000 0.00000
								CHANNELS 3 Zrotation Yrotation Xrotation
								JOINT RightFingerBase
								{
									OFFSET 0 0 0
									CHANNELS 3 Zrotation Yrotation Xrotation
									JOINT RightHandIndex1
									{
										OFFSET -0.58385 -0.00000 0.00000
										CHANNELS 3 Zrotation Yrotation Xrotation
										End Site
										{
											OFFSET -0.47071 -0.00000 0.00000
										}
									}
								}
								JOINT RThumb
								{
									OFFSET 0 0 0
									CHANNELS 3 Zrotation Yrotation Xrotation
									End Site
									{
										OFFSET -0.47790 -0.00000 0.47790
									}
								}
							}
						}
					}
				}
			}
		}
	}
}
MOTION
Frames: 16
Frame Time: .0083333
-1.4709 18.7228 0.7986 0 0 0 0 0 0 -21 0 0 0 0 0 0 0 0 0 0 0 0 0 0 21 0 0 0 0 0 0 0 0 0 0 0 0 0 0 0 0 0 0 0 0 0 0 -16 0 0 21 0 0 11 0 0 0 -8 0 0 0 0 0 0 0 0 0 0 0 0 0 0 0 0 0 0 0 0 8 0 0 0 0 0 0 0 0 0 0 0 0 0 0 0 0 0
-1.4709 18.7228 0.7986 1.6960 -47.9303 0.9606 0.0000 0.0000 0.0000 -20.0297 -11.9254 -1.0724 1.3651 7.3948 20.8905 0.7491 10.2985 -23.1450 0.0095 -0.6309 -1.7336 0.0000 0.0000 0.0000 16.1535 17.5004 -2.0176 -1.7846 -8.4023 23.9429 -0.6067 -16.0258 -27.8470 -0.0034 0.3764 -1.0342 -1.4410 0.5844 1.8557 -1.6533 0.7319 0.4222 -0.9023 0.3639 -0.6042 -5.4745 -0.0586 -11.8860 6.4375 -0.3413 18.1932 2.9938 0.0269 7.5611 0.0000 -0.0000 0.0000 -83.0244 -2.0960 20.4920 12.7109 -20.8621 -2.3493 -0.0000 0.0000 -13.3993 17.5395 25.1727 7.6566 -7.1250 0.0000 -0.0000 -13.0629 55.7390 -3.4851 0.0000 -0.0000 0.0000 81.9475 -9.0662 31.3930 -19.6871 30.2636 -5.3728 0.0000 -0.0000 -4.2868 -20.5139 -5.6049 2.0929 7.1250 -0.0000 -0.0000 5.1867 -35.9210 1.1613
-1.4619 18.7234 0.7938 1.7874 -47.4907 0.9387 0.0000 0.0000 0.0000 -20.0081 -11.8154 -1.3591 1.3766 7.4248 20.9802 0.7256 9.9882 -22.6530 0.0181 -0.8683 -2.3866 0.0000 0.0000 0.0000 16.1077 17.5058 -2.0352 -1.7946 -8.4245 24.0109 -0.6029 -16.3164 -28.1447 -0.0019 0.2779 -0.7636 -1.4765 0.5886 1.8835 -1.6770 0.7349 0.3790 -0.9074 0.3656 -0.6642 -5.4718 -0.0217 -11.7876 6.5616 -0.3167 18.1225 3.0349 0.0491 7.5183 -0.0000 -0.0000 0.0000 -82.8714 -2.4134 21.0212 12.7353 -20.8982 -2.3580 -0.0000 0.0000 -15.4066 18.7377 24.8379 8.1094 -7.1250 0.0000 -0.0000 -11.6637 55.6467 -3.0777 -0.0000 -0.0000 0.0000 81.9029 -8.9981 31.9169 -19.8283 30.4350 -5.4441 0.0000 -0.0000 -6.2116 -20.8121 -5.8664 2.2248 7.1250 -0.0000 -0.0000 4.9638 -36.2146 1.0754
-1.4521 18.7236 0.7937 1.8143 -47.0042 0.9643 0.0000 0.0000 0.0000 -19.9899 -11.8966 -1.5721 1.3914 7.4629 21.0941 0.7154 9.7379 -22.3345 0.0217 -0.9507 -2.6133 0.0000 0.0000 0.0000 16.0643 17.3168 -2.0923 -1.7987 -8.4336 24.0391 -0.6105 -16.4823 -28.3860 -0.0009 0.1952 -0.5365 -1.4780 0.5672 1.8973 -1.6550 0.7053 0.3251 -0.8838 0.3513 -0.7276 -5.4525 0.0322 -11.7681 6.6133 -0.2591 18.1664 3.0551 0.0824 7.5251 -0.0000 -0.0000 0.0000 -82.8239 -2.7341 21.2789 12.6876 -20.8277 -2.3410 -0.0000 0.0000 -16.8283 19.9580 24.1034 8.4356 -7.1250 0.0000 -0.0000 -10.0684 55.1503 -2.5282 -0.0000 -0.0000 0.0000 81.7929 -8.9102 32.4071 -19.9392 30.5690 -5.5004 0.0000 -0.0000 -8.1271 -20.6717 -6.0806 2.2887 7.1250 -0.0000 -0.0000 5.1033 -36.4346 1.0784
-1.4403 18.7227 0.7948 1.7865 -46.4794 0.9764 0.0000 0.0000 0.0000 -19.9454 -12.0128 -1.6943 1.4023 7.4907 21.1775 0.7161 9.4127 -22.0489 0.0176 -0.8562 -2.3532 0.0000 0.0000 0.0000 16.0808 17.1178 -2.0943 -1.8064 -8.4506 24.0912 -0.6115 -16.6838 -28.6191 -0.0005 0.1512 -0.4155 -1.4778 0.5198 1.9963 -1.5799 0.6395 0.2713 -0.8067 0.3192 -0.8393 -5.4738 0.0504 -11.7615 6.5834 -0.2267 18.2322 3.0530 0.0936 7.5433 0.0000 0.0000 0.0000 -82.8344 -3.0879 20.8749 12.6153 -20.7209 -2.3154 -0.0000 0.0000 -16.6011 19.6179 23.9098 8.2202 -7.1250 0.0000 -0.0000 -10.3350 54.8866 -2.5296 0.0000 0.0000 0.0000 81.5793 -8.8289 32.9163 -20.0435 30.6948 -5.5536 0.0000 -0.0000 -9.9565 -20.2286 -6.4051 2.3540 7.1250 -0.0000 -0.0000 5.5101 -36.7535 1.1219
-1.4276 18.7215 0.7954 1.8166 -45.9504 0.9067 0.0000 0.0000 0.0000 -19.9578 -12.1448 -1.7550 1.4111 7.5132 21.2451 0.7146 9.0992 -21.7587 0.0196 -0.9031 -2.4822 0.0000 0.0000 0.0000 16.0721 16.9352 -2.0505 -1.8148 -8.4692 24.1484 -0.5939 -16.9414 -28.7842 -0.0009 0.1901 -0.5222 -1.4797 0.5044 2.1147 -1.5416 0.6160 0.2490 -0.7671 0.3080 -0.9290 -5.4426 0.0199 -11.7392 6.5381 -0.2672 18.2482 3.0290 0.0721 7.5474 -0.0000 0.0000 0.0000 -82.7593 -3.5077 20.8187 12.5707 -20.6550 -2.2996 -0.0000 0.0000 -16.6214 19.5247 23.7290 8.1211 -7.1250 0.0000 -0.0000 -10.3528 54.6853 -2.4831 -0.0000 0.0000 0.0000 81.4587 -8.6850 33.2024 -20.1369 30.8069 -5.6013 0.0000 -0.0000 -11.8612 -20.2651 -6.9185 2.5465 7.1250 -0.0000 -0.0000 5.5378 -37.2989 1.0534
-1.4159 18.7189 0.7971 2.0149 -45.4420 0.6752 0.0000 0.0000 0.0000 -20.1528 -12.3929 -1.6942 1.4193 7.5341 21.3077 0.7144 8.9152 -21.5954 0.0204 -0.9212 -2.5321 0.0000 0.0000 0.0000 15.9378 16.7489 -1.9633 -1.8248 -8.4912 24.2164 -0.5976 -17.1115 -29.0039 -0.0004 0.1349 -0.3706 -1.5237 0.5012 2.2336 -1.5928 0.6064 0.2343 -0.7959 0.3034 -1.0106 -5.3154 0.0452 -11.7611 6.5250 -0.2588 18.3490 3.0062 0.0839 7.5838 0.0000 -0.0000 0.0000 -82.6067 -3.8663 21.2051 12.5616 -20.6415 -2.2964 -0.0000 0.0000 -17.4594 20.3362 23.1382 8.2862 -7.1250 0.0000 -0.0000 -9.2762 54.2413 -2.1206 0.0000 -0.0000 0.0000 81.4616 -8.5001 33.5207 -20.2009 30.8837 -5.6341 0.0000 -0.0000 -14.0097 -21.3777 -6.8571 2.6758 7.1250 -0.0000 -0.0000 4.5896 -37.3033 0.8715
-1.4047 18.7162 0.7964 2.2155 -44.9220 0.4638 0.0000 0.0000 0.0000 -20.3246 -12.5651 -1.7074 1.4294 7.5597 21.3846 0.7111 8.6799 -21.3608 0.0154 -0.8003 -2.1994 0.0000 0.0000 0.0000 15.8028 16.5574 -1.9130 -1.8361 -8.5160 24.2927 -0.5928 -17.3595 -29.2527 -0.0002 0.0922 -0.2532 -1.6230 0.4805 2.3199 -1.6260 0.5731 0.2290 -0.7742 0.2873 -1.0651 -5.2032 0.0970 -11.8090 6.5487 -0.2152 18.4198 3.0012 0.1155 7.6127 0.0000 -0.0000 0.0000 -82.5224 -4.2429 21.3310 12.5857 -20.6771 -2.3049 -0.0000 0.0000 -18.2890 21.0693 22.5291 8.3968 -7.1250 0.0000 -0.0000 -8.2909 53.7563 -1.7945 0.0000 -0.0000 0.0000 81.4235 -8.3162 34.4448 -20.6804 31.4534 -5.8823 0.0000 -0.0000 -17.3647 -23.3408 -9.4591 4.0564 7.1250 -0.0000 -0.0000 3.1848 -40.2448 0.3738
-1.3932 18.7161 0.7920 2.2137 -44.3964 0.4504 0.0000 0.0000 0.0000 -20.2600 -12.4841 -1.9292 1.4398 7.5861 21.4639 0.6900 8.3300 -20.8585 0.0222 -0.9621 -2.6446 0.0000 0.0000 0.0000 15.8298 16.4594 -1.9023 -1.8482 -8.5425 24.3742 -0.5862 -17.6685 -29.5603 -0.0001 0.0740 -0.2033 -1.6534 0.4825 2.3587 -1.5877 0.5749 0.2406 -0.7183 0.2884 -1.0756 -5.1302 0.1311 -11.8335 6.6048 -0.1910 18.3998 3.0098 0.1382 7.6089 0.0000 -0.0000 0.0000 -82.5064 -4.7377 21.3124 12.6428 -20.7616 -2.3251 -0.0000 0.0000 -19.0324 21.6288 22.3825 8.5860 -7.1250 0.0000 -0.0000 -7.6654 53.7111 -1.6494 0.0000 -0.0000 0.0000 81.3828 -8.0620 34.9672 -21.0277 31.8606 -6.0645 0.0000 -0.0000 -20.1924 -23.8516 -11.1166 4.8724 7.1250 -0.0000 -0.0000 2.9334 -42.0868 0.2110
-1.3785 18.7168 0.7900 2.1968 -43.8475 0.4729 0.0000 0.0000 0.0000 -20.1601 -12.2809 -2.2273 1.4458 7.6011 21.5088 0.6685 7.8426 -20.2362 0.0299 -1.1154 -3.0663 0.0000 0.0000 0.0000 15.8332 16.3220 -1.9521 -1.8657 -8.5805 24.4916 -0.6037 -17.8421 -29.8798 -0.0000 -0.0273 0.0749 -1.6011 0.5225 2.4069 -1.5760 0.6284 0.2329 -0.7379 0.3152 -1.1100 -5.1501 0.1274 -11.7530 6.8296 -0.2343 18.2889 3.0809 0.1362 7.5604 0.0000 0.0000 0.0000 -82.4506 -5.2720 21.4780 12.7034 -20.8511 -2.3467 -0.0000 0.0000 -19.8888 21.5330 22.8258 8.7026 -7.1250 0.0000 -0.0000 -7.9272 54.1513 -1.7916 0.0000 0.0000 0.0000 81.4117 -7.7793 35.1171 -21.2212 32.0856 -6.1670 0.0000 -0.0000 -22.6380 -23.0045 -11.9569 5.0268 7.1250 -0.0000 -0.0000 3.8105 -42.9043 0.1974
-1.3653 18.7147 0.7944 2.3889 -43.3159 0.2674 0.0000 0.0000 0.0000 -20.3125 -12.2123 -2.3142 1.4513 7.6150 21.5508 0.6614 7.4644 -19.8510 0.0355 -1.2169 -3.3458 0.0000 0.0000 0.0000 15.6774 16.1429 -1.8896 -1.8866 -8.6257 24.6313 -0.6509 -17.9055 -30.2720 -0.0008 -0.1824 0.5012 -1.6124 0.5414 2.4274 -1.6343 0.6524 0.2664 -0.7921 0.3268 -1.0867 -5.1467 0.1496 -11.6524 7.0159 -0.2382 18.1567 3.1383 0.1504 7.4989 0.0000 -0.0000 0.0000 -82.3494 -5.8118 21.6452 12.7659 -20.9433 -2.3690 -0.0000 0.0000 -20.8426 20.8815 23.7962 8.7506 -7.1250 0.0000 -0.0000 -8.9824 55.0211 -2.2237 0.0000 -0.0000 0.0000 81.4622 -7.4461 35.2678 -21.3017 32.1788 -6.2098 0.0000 -0.0000 -25.0441 -21.2909 -11.2615 4.3520 7.1250 -0.0000 -0.0000 5.2388 -41.9847 0.3909
-1.3536 18.7103 0.8035 2.9274 -42.7182 -0.2394 0.0000 0.0000 0.0000 -20.7983 -12.2328 -2.2243 1.4539 7.6215 21.5701 0.6675 7.0551 -19.5818 0.0363 -1.2305 -3.3834 0.0000 0.0000 0.0000 15.2234 15.7388 -1.8031 -1.9112 -8.6787 24.7954 -0.6775 -17.9600 -30.5117 -0.0005 -0.1387 0.3811 -1.8153 0.5455 2.3630 -1.8038 0.6541 0.3853 -0.8507 0.3266 -0.9291 -5.0257 0.1589 -11.6694 7.1320 -0.2654 18.0577 3.1521 0.1571 7.4713 0.0000 -0.0000 0.0000 -82.1621 -6.4429 21.7349 12.9111 -21.1567 -2.4211 -0.0000 0.0000 -22.1439 19.9430 25.5212 8.8851 -7.1250 0.0000 -0.0000 -10.7339 56.5820 -3.0723 0.0000 -0.0000 0.0000 81.5580 -6.9951 35.5256 -21.3501 32.2347 -6.2356 0.0000 -0.0000 -27.5945 -20.6398 -11.1643 4.1713 7.1250 -0.0000 -0.0000 5.8016 -41.8178 0.4572
-1.3392 18.7095 0.8087 3.2506 -42.1252 -0.5510 0.0000 0.0000 0.0000 -21.0967 -12.1336 -2.2204 1.4501 7.6119 21.5413 0.6531 6.6319 -19.0987 0.0399 -1.2890 -3.5444 0.0000 0.0000 0.0000 14.9225 15.3388 -1.8147 -1.9399 -8.7397 24.9845 -0.7014 -18.0323 -30.7511 -0.0003 -0.1037 0.2850 -1.8892 0.5472 2.3072 -1.9266 0.6567 0.4816 -0.9341 0.3267 -0.7985 -4.8679 0.1739 -11.8136 7.2366 -0.2934 18.1164 3.1602 0.1670 7.5183 0.0000 -0.0000 0.0000 -82.0736 -7.0816 21.4331 13.1425 -21.4956 -2.5052 -0.0000 0.0000 -23.4656 18.6616 27.7331 8.9319 -7.1250 0.0000 -0.0000 -13.2722 58.5119 -4.4356 0.0000 -0.0000 0.0000 81.6556 -6.4994 35.8276 -21.3452 32.2291 -6.2330 0.0000 -0.0000 -30.1843 -21.6987 -11.5583 4.5585 7.1250 -0.0000 -0.0000 4.9218 -42.3412 0.3237
-1.3261 18.7104 0.8114 3.4303 -41.6042 -0.7526 0.0000 0.0000 0.0000 -21.2752 -12.0434 -2.2181 1.4441 7.5969 21.4964 0.6333 6.2748 -18.6127 0.0478 -1.4104 -3.8787 0.0000 0.0000 0.0000 14.7542 15.0621 -1.8255 -1.9709 -8.8052 25.1878 -0.7208 -18.1503 -31.0099 -0.0001 -0.0735 0.2019 -1.9607 0.5413 2.2973 -1.9609 0.6480 0.5243 -0.9285 0.3220 -0.7497 -4.8249 0.2304 -11.9087 7.3900 -0.2546 18.1937 3.2103 0.2046 7.5579 0.0000 0.0000 0.0000 -82.0510 -7.5897 21.2853 13.3604 -21.8130 -2.5857 -0.0000 0.0000 -25.0205 18.2282 29.0420 9.0832 -7.1250 0.0000 -0.0000 -14.5470 59.6982 -5.2878 0.0000 0.0000 0.0000 81.6304 -6.0150 36.2722 -21.3523 32.2373 -6.2368 0.0000 -0.0000 -32.8516 -23.1670 -12.0143 5.0901 7.1250 -0.0000 -0.0000 3.6723 -42.9837 0.1830
-1.3142 18.7091 0.8132 3.5720 -41.1306 -0.9321 0.0000 0.0000 0.0000 -21.4381 -12.1338 -2.1361 1.4380 7.5816 21.4504 0.6275 6.1745 -18.4736 0.1189 -2.2229 -6.1221 0.0000 0.0000 0.0000 14.6343 14.8773 -1.8237 -2.0038 -8.8739 25.4018 -0.7442 -18.2878 -31.3149 -0.0001 -0.0788 0.2165 -2.0479 0.5849 2.3388 -1.9773 0.7020 0.5136 -0.8987 0.3493 -0.7846 -4.7915 0.2631 -11.8015 7.5451 -0.2481 18.1470 3.2548 0.2224 7.5226 -0.0000 0.0000 0.0000 -82.0503 -8.0436 21.3047 13.5164 -22.0391 -2.6439 -0.0000 0.0000 -26.4627 18.4993 29.7388 9.4234 -7.1250 0.0000 -0.0000 -14.7159 60.4419 -5.6127 -0.0000 0.0000 0.0000 81.6852 -5.5412 36.4767 -21.3028 32.1801 -6.2104 0.0000 -0.0000 -35.2685 -23.8048 -12.5905 5.4929 7.1250 -0.0000 -0.0000 3.1788 -43.6758 0.1040
-1.2979 18.7078 0.8147 3.6835 -40.6024 -1.0330 0.0000 0.0000 0.0000 -21.5659 -12.2425 -2.1401 1.4305 7.5626 21.3932 0.6240 5.7629 -18.1258 0.0595 -1.5745 -4.3312 0.0000 0.0000 0.0000 14.5013 14.6124 -1.9421 -2.0387 -8.9462 25.6272 -0.7425 -18.4549 -31.4894 -0.0002 -0.0797 0.2189 -2.0510 0.6488 2.3756 -2.0288 0.7845 0.4954 -0.9529 0.3907 -0.8232 -4.6331 0.2403 -11.8513 7.6676 -0.3368 18.1973 3.2620 0.2034 7.5542 -0.0000 -0.0000 0.0000 -82.1176 -8.6193 21.0582 13.6706 -22.2618 -2.7020 -0.0000 0.0000 -27.4858 18.4643 30.8714 9.7221 -7.1250 0.0000 -0.0000 -15.5606 61.5322 -6.3475 -0.0000 -0.0000 0.0000 81.8429 -5.0559 36.5502 -21.3185 32.1982 -6.2188 0.0000 -0.0000 -38.0319 -24.1443 -12.9432 5.7334 7.1250 -0.0000 -0.0000 2.9209 -44.0967 0.0652
